<svg version="1.0" xmlns="http://www.w3.org/2000/svg"
  width="159.000000pt" height="159.000000pt"
  viewBox="0 0 159.000000 159.000000"
  preserveAspectRatio="xMidYMid meet">

  <!-- 背景圆形 -->
  <circle cx="79.5" cy="79.5" r="79.5" fill="orange" />

  <g transform="translate(0.000000,159.000000) scale(0.050000,-0.050000)"
     fill="#020000" stroke="none">
    <path d="M1245 2229 c-345 -339 -352 -361 -187 -535 l99 -105 -99 -103 c-164 -172 -156 -197 169 -520 310 -308 313 -309 313 -141 l0 126 -170 169 c-185 184 -195 209 -119 280 l50 48 140 -139 139 -138 75 74 74 75 -264 265 c-146 146 -265 274 -265 285 0 11 77 97 171 191 l171 172 -6 138 -6 139 -285 -281z"/>
    <path d="M1620 2375 l0 -126 161 -159 c209 -207 212 -212 146 -290 l-53 -63 -143 142 -142 141 -74 -75 -74 -76 269 -269 c149 -148 270 -276 270 -283 0 -8 -81 -98 -179 -201 l-180 -186 0 -115 c-1 -161 11 -155 325 162 329 332 333 343 171 514 l-103 109 103 109 c161 170 150 200 -206 546 -292 285 -291 284 -291 120z"/>
  </g>
</svg>