 <svg  version="1.0" xmlns="http://www.w3.org/2000/svg"  width="128.000000pt" height="128.000000pt" viewBox="0 0 128.000000 128.000000"  preserveAspectRatio="xMidYMid meet">  <g transform="translate(0.000000,128.000000) scale(0.050000,-0.050000)" fill="#fe9a02" stroke="none"> <path d="M1460 2047 c-198 -38 -800 -613 -800 -765 0 -128 117 -277 253 -323 104 -35 188 17 441 274 l229 232 89 -87 89 -87 -285 -285 c-404 -405 -530 -432 -812 -175 -388 354 -385 501 20 907 295 295 289 284 124 264 -192 -22 -514 -360 -590 -619 -95 -324 380 -869 761 -872 208 -1 276 38 568 326 404 398 438 500 225 688 -170 150 -244 124 -560 -190 l-238 -238 -87 86 -88 86 285 285 c428 429 536 443 858 116 220 -224 228 -237 228 -390 0 -160 0 -160 -313 -475 -134 -135 -240 -248 -235 -252 4 -4 63 -1 130 6 l122 12 192 198 c190 195 254 288 254 368 0 22 9 46 20 53 82 50 -45 365 -220 546 -259 268 -439 353 -660 311z"/> </g> </svg> 